<?xml version="1.0" encoding="UTF-8"?>
<!DOCTYPE svg PUBLIC "-//W3C//DTD SVG 1.1//EN" "http://www.w3.org/Graphics/SVG/1.1/DTD/svg11.dtd">
<!-- Creator: CorelDRAW -->
<svg xmlns="http://www.w3.org/2000/svg" xml:space="preserve" width="71.8699mm" height="19.4651mm" version="1.1" style="shape-rendering:geometricPrecision; text-rendering:geometricPrecision; image-rendering:optimizeQuality; fill-rule:evenodd; clip-rule:evenodd"
viewBox="0 0 6483.95 1756.1"
 xmlns:xlink="http://www.w3.org/1999/xlink"
 xmlns:xodm="http://www.corel.com/coreldraw/odm/2003">
 <defs>
  <style type="text/css">
   <![CDATA[
    .fil2 {fill:#2B2A29;fill-rule:nonzero}
    .fil0 {fill:black;fill-rule:nonzero}
    .fil1 {fill:#CC0000;fill-rule:nonzero}
   ]]>
  </style>
 </defs>
 <g id="Слой_x0020_1">
  <metadata id="CorelCorpID_0Corel-Layer"/>
  <g id="_2457858149952">
   <g>
    <polygon class="fil0" points="278.77,0 -0,270.29 463.12,387.19 728.38,121.91 "/>
    <polygon class="fil0" points="728.38,193.6 454.13,450.13 454.13,1147.07 728.38,890.77 "/>
    <polygon class="fil1" points="454.13,0 773.35,90.43 755.38,387.19 1142.05,0 "/>
   </g>
   <path class="fil2" d="M1613.1 682c0,59.04 -7.33,111.87 -22,158.5 -14.67,46.62 -36.48,86.3 -65.62,118.64 -28.95,32.53 -64.87,57.35 -107.55,74.46 -42.86,17.11 -92.31,25.57 -148.53,25.57 -55.47,0 -103.79,-7.33 -144.96,-21.81 -41.36,-14.48 -75.77,-36.48 -103.41,-66.37 -27.45,-29.71 -48.13,-67.5 -61.86,-113.38 -13.72,-45.88 -20.68,-100.21 -20.68,-163.01 0,-57.53 7.33,-109.43 22,-155.49 14.67,-46.07 36.48,-85.17 65.62,-117.51 28.96,-32.34 64.87,-57.16 107.55,-74.27 42.87,-17.3 92.51,-25.95 149.1,-25.95 53.96,0 101.53,7.15 142.9,21.44 41.18,14.28 75.77,36.29 103.41,66.17 27.83,29.71 48.7,67.13 62.8,112.44 14.1,45.51 21.25,98.9 21.25,160.57zm-152.3 7.33c0,-37.41 -3,-71.45 -8.83,-102.1 -5.83,-30.65 -15.8,-56.96 -29.9,-78.78 -14.1,-21.81 -32.9,-38.73 -56.4,-50.77 -23.5,-11.85 -52.84,-17.86 -88,-17.86 -35.54,0 -65.24,6.78 -88.93,20.12 -23.88,13.35 -43.25,31.4 -57.91,53.78 -14.67,22.37 -25.01,48.51 -31.03,78.4 -6.02,30.09 -9.02,61.67 -9.02,95.14 0,38.92 3,73.89 8.83,104.91 5.83,31.02 15.8,57.53 29.71,79.72 13.91,22 32.52,38.73 56.03,50.39 23.5,11.48 53.02,17.3 88.55,17.3 35.54,0 65.25,-6.59 88.94,-19.93 23.88,-13.16 43.24,-31.22 57.91,-53.97 14.67,-22.74 25.01,-49.26 31.03,-79.53 6.02,-30.28 9.02,-62.61 9.02,-96.83zm879.34 -9.59c0,65.44 -8.46,121.27 -25.57,167.9 -17.11,46.44 -41.55,84.23 -73.52,113.75 -31.96,29.33 -70.88,50.96 -116.57,64.69 -45.69,13.72 -100.21,20.68 -163.39,20.68l-170.15 0c-12.22,0 -22.37,-3.57 -30.65,-10.72 -8.27,-7.15 -12.41,-18.8 -12.41,-34.97l0 -621.6c0,-16.17 4.14,-27.82 12.41,-34.97 8.27,-7.15 18.42,-10.72 30.65,-10.72l182.75 0c63.55,0 117.51,7.52 161.7,22.37 44.37,14.86 81.59,36.85 111.87,65.99 30.27,29.33 53.4,65.44 69.19,108.31 15.8,43.05 23.69,92.69 23.69,149.28zm-150.04 5.08c0,-33.85 -3.94,-65.06 -11.85,-94.2 -7.89,-28.96 -20.49,-53.97 -37.97,-75.21 -17.49,-21.25 -39.87,-37.98 -67.13,-49.83 -27.44,-11.84 -63.17,-17.85 -107.73,-17.85l-73.14 0 0 483.96 75.4 0c39.67,0 73.14,-5.08 100.21,-15.42 27.07,-10.16 49.83,-25.77 68.06,-46.44 18.05,-20.69 31.59,-46.44 40.62,-77.28 9.02,-30.83 13.53,-66.74 13.53,-107.73zm426.97 342.2c0,3.57 -1.13,6.96 -3.57,9.96 -2.44,2.82 -6.4,5.27 -11.85,7.15 -5.46,1.7 -12.97,3.2 -22,4.33 -9.21,1.13 -21.06,1.69 -35.35,1.69 -13.91,0 -25.57,-0.56 -34.97,-1.69 -9.4,-1.13 -16.92,-2.63 -22.37,-4.33 -5.45,-1.88 -9.4,-4.32 -11.85,-7.15 -2.44,-3 -3.57,-6.39 -3.57,-9.96l0 -673.49c0,-3.57 1.13,-6.96 3.57,-9.96 2.44,-2.82 6.4,-5.27 12.22,-7.15 5.64,-1.88 12.97,-3.19 22.18,-4.32 9.21,-1.13 20.87,-1.7 34.78,-1.7 14.29,0 26.14,0.57 35.35,1.7 9.03,1.13 16.55,2.44 22,4.32 5.45,1.88 9.4,4.32 11.85,7.15 2.44,3 3.57,6.39 3.57,9.96l0 673.49zm559.33 -40.81c0,10.91 -0.37,20.31 -1.32,27.83 -0.94,7.52 -2.44,13.72 -4.13,18.61 -1.88,5.08 -4.14,8.65 -6.96,10.72 -2.82,2.26 -6.02,3.38 -9.59,3.38l-326.59 0c-12.04,0 -22.18,-3.57 -30.46,-10.72 -8.27,-7.15 -12.41,-18.8 -12.41,-34.97l0 -647.55c0,-3.57 1.13,-6.96 3.57,-9.96 2.44,-2.82 6.4,-5.27 11.85,-7.15 5.45,-1.88 12.97,-3.19 22.37,-4.32 9.4,-1.13 21.06,-1.7 34.97,-1.7 14.29,0 26.14,0.57 35.35,1.7 9.03,1.13 16.55,2.44 22,4.32 5.45,1.88 9.4,4.32 11.85,7.15 2.44,3 3.57,6.39 3.57,9.96l0 573.65 223.93 0c3.57,0 6.96,0.95 9.59,3.01 2.81,2.07 5.08,5.26 6.96,9.96 1.88,4.52 3.19,10.53 4.13,18.24 0.95,7.52 1.32,16.74 1.32,27.82zm758.08 -435.82c0,40.24 -6.21,75.58 -18.8,106.41 -12.4,31.03 -30.65,56.97 -54.72,78.03 -23.87,21.25 -53.21,37.23 -87.99,48.32 -34.79,11.1 -75.77,16.55 -122.97,16.55l-59.6 0 0 227.32c0,3.76 -1.13,6.96 -3.57,9.96 -2.44,2.82 -6.4,5.27 -11.85,7.15 -5.46,1.89 -12.78,3.2 -22,4.33 -9.02,1.13 -20.87,1.69 -34.97,1.69 -13.91,0 -25.57,-0.56 -34.97,-1.69 -9.4,-1.13 -16.74,-2.63 -22.19,-4.33 -5.45,-1.88 -9.4,-4.32 -11.47,-7.15 -2.26,-3 -3.38,-6.39 -3.38,-9.96l0 -641.34c0,-17.29 4.51,-30.27 13.54,-38.92 9.02,-8.64 20.87,-12.97 35.53,-12.97l168.09 0c16.92,0 33.09,0.57 48.32,1.89 15.23,1.31 33.47,4.13 54.91,8.27 21.25,4.32 42.86,12.03 64.68,23.5 21.81,11.28 40.61,25.76 56.03,43.24 15.42,17.48 27.26,37.79 35.35,61.29 8.08,23.31 12.04,49.45 12.04,78.41zm-151.17 10.53c0,-25.01 -4.51,-45.7 -13.34,-61.86 -8.84,-16.17 -19.75,-28.2 -32.72,-35.91 -12.97,-7.71 -26.51,-12.6 -40.61,-14.67 -14.29,-2.07 -28.96,-3 -44.19,-3l-62.04 0 0 242.54 65.43 0c23.31,0 42.68,-3.19 58.48,-9.4 15.6,-6.21 28.57,-15.04 38.54,-26.33 9.97,-11.09 17.48,-24.63 22.75,-40.24 5.07,-15.6 7.7,-32.71 7.7,-51.14zm782.89 431.88c4.33,13.16 7.15,23.69 8.27,31.4 1.13,7.71 -0.37,13.54 -4.32,17.48 -4.14,3.76 -11.28,6.21 -21.63,7.15 -10.15,0.94 -24.44,1.32 -42.3,1.32 -18.8,0 -33.47,-0.19 -43.81,-0.75 -10.53,-0.57 -18.42,-1.7 -24.06,-3.38 -5.46,-1.7 -9.22,-3.95 -11.48,-6.96 -2.26,-2.82 -4.13,-6.78 -5.45,-11.48l-46.81 -143.27 -268.87 0 -44.94 139.32c-1.51,5.26 -3.39,9.58 -5.83,12.97 -2.26,3.57 -6.21,6.2 -11.48,8.27 -5.26,2.07 -12.78,3.38 -22.56,4.13 -9.77,0.75 -22.56,1.13 -38.35,1.13 -16.92,0 -30.09,-0.56 -39.68,-1.69 -9.58,-1.13 -16.17,-3.76 -19.74,-7.9 -3.76,-4.32 -5.07,-10.34 -3.94,-18.04 1.13,-7.71 3.94,-17.86 8.27,-30.84l219.6 -632.69c2.08,-6.21 4.7,-11.29 7.71,-15.04 2.82,-3.95 7.52,-6.78 13.91,-8.84 6.59,-2.07 15.42,-3.38 26.88,-3.95 11.29,-0.56 26.33,-0.75 45.13,-0.75 21.63,0 38.92,0.19 51.7,0.75 12.97,0.57 22.94,1.89 30.09,3.95 7.15,2.07 12.22,5.08 15.42,9.02 3,4.14 5.83,9.59 7.89,16.55l220.36 632.13zm-327.15 -523.45l-0.57 0 -99.28 303.28 200.06 0 -100.21 -303.28zm928.04 81.04c0,40.24 -6.21,75.58 -18.8,106.41 -12.4,31.03 -30.65,56.97 -54.72,78.03 -23.87,21.25 -53.21,37.23 -87.99,48.32 -34.79,11.1 -75.77,16.55 -122.97,16.55l-59.6 0 0 227.32c0,3.76 -1.13,6.96 -3.57,9.96 -2.44,2.82 -6.4,5.27 -11.85,7.15 -5.46,1.89 -12.78,3.2 -22,4.33 -9.02,1.13 -20.87,1.69 -34.97,1.69 -13.91,0 -25.57,-0.56 -34.97,-1.69 -9.4,-1.13 -16.74,-2.63 -22.19,-4.33 -5.45,-1.88 -9.4,-4.32 -11.47,-7.15 -2.26,-3 -3.38,-6.39 -3.38,-9.96l0 -641.34c0,-17.29 4.51,-30.27 13.54,-38.92 9.02,-8.64 20.87,-12.97 35.53,-12.97l168.09 0c16.92,0 33.09,0.57 48.32,1.89 15.23,1.31 33.47,4.13 54.91,8.27 21.25,4.32 42.86,12.03 64.68,23.5 21.81,11.28 40.61,25.76 56.03,43.24 15.42,17.48 27.26,37.79 35.35,61.29 8.08,23.31 12.04,49.45 12.04,78.41zm-151.17 10.53c0,-25.01 -4.51,-45.7 -13.34,-61.86 -8.84,-16.17 -19.75,-28.2 -32.72,-35.91 -12.97,-7.71 -26.51,-12.6 -40.61,-14.67 -14.29,-2.07 -28.96,-3 -44.19,-3l-62.04 0 0 242.54 65.43 0c23.31,0 42.68,-3.19 58.48,-9.4 15.6,-6.21 28.57,-15.04 38.54,-26.33 9.97,-11.09 17.48,-24.63 22.75,-40.24 5.07,-15.6 7.7,-32.71 7.7,-51.14zm697.53 428.87c0,10.72 -0.37,19.56 -1.31,26.88 -0.95,7.15 -2.26,12.97 -4.14,17.3 -1.88,4.51 -4.13,7.7 -6.96,9.78 -2.63,2.07 -5.83,3 -9.02,3l-357.61 0c-12.04,0 -22.18,-3.57 -30.46,-10.72 -8.27,-7.15 -12.41,-18.8 -12.41,-34.97l0 -621.6c0,-16.17 4.14,-27.82 12.41,-34.97 8.27,-7.15 18.42,-10.72 30.46,-10.72l355.92 0c3.19,0 6.21,0.94 8.84,2.82 2.44,1.88 4.7,5.08 6.58,9.59 1.7,4.7 3.19,10.53 4.14,17.67 0.94,7.33 1.31,16.36 1.31,27.44 0,10.35 -0.37,18.99 -1.31,26.33 -0.95,7.15 -2.26,12.97 -4.14,17.29 -1.88,4.52 -4.13,7.71 -6.58,9.78 -2.63,2.07 -5.65,3.01 -8.84,3.01l-254.39 0 0 173.72 214.34 0c3.38,0 6.4,0.95 9.02,3.01 2.82,2.07 5.08,5.08 6.96,9.4 1.89,4.13 3.2,9.78 4.14,17.11 0.94,7.15 1.32,15.8 1.32,25.95 0,10.72 -0.38,19.56 -1.32,26.52 -0.94,6.96 -2.26,12.59 -4.14,16.74 -1.88,4.32 -4.13,7.33 -6.96,9.02 -2.63,1.89 -5.64,2.82 -9.02,2.82l-214.34 0 0 200.81 256.08 0c3.38,0 6.39,0.94 9.02,3 2.82,2.07 5.08,5.27 6.96,9.78 1.89,4.32 3.19,10.15 4.14,17.29 0.94,7.33 1.31,16.17 1.31,26.88zm670.09 38.36c0,3.94 -0.76,7.33 -2.26,10.15 -1.51,2.82 -4.89,5.08 -10.35,6.96 -5.64,1.7 -13.53,3.01 -24.25,3.76 -10.72,0.75 -25.2,1.13 -43.43,1.13 -15.42,0 -27.64,-0.38 -36.85,-1.13 -9.21,-0.75 -16.55,-2.07 -21.81,-4.13 -5.26,-2.08 -9.02,-4.52 -11.28,-7.71 -2.07,-3.19 -3.95,-6.96 -5.45,-11.28l-64.31 -159.63c-7.7,-18.05 -15.23,-34.22 -22.56,-48.13 -7.33,-14.1 -15.61,-25.76 -24.63,-35.16 -9.02,-9.4 -19.55,-16.37 -31.4,-21.25 -11.66,-4.7 -25.39,-7.15 -40.81,-7.15l-45.31 0 0 272.44c0,3.57 -1.13,6.96 -3.57,9.77 -2.44,3.01 -6.4,5.46 -11.85,7.33 -5.46,1.7 -12.78,3.2 -22,4.33 -9.02,1.13 -20.87,1.69 -34.97,1.69 -13.91,0 -25.57,-0.56 -34.97,-1.69 -9.4,-1.13 -16.74,-2.63 -22.19,-4.33 -5.45,-1.88 -9.4,-4.32 -11.47,-7.15 -2.26,-3 -3.38,-6.39 -3.38,-9.96l0 -647.55c0,-16.17 4.14,-27.82 12.41,-34.97 8.27,-7.15 18.42,-10.72 30.46,-10.72l184.63 0c18.61,0 34.22,0.38 46.25,1.13 12.04,0.76 23.12,1.7 33.09,2.63 28.58,4.14 54.34,11.1 77.28,21.06 22.93,9.78 42.49,22.75 58.47,38.73 15.98,15.99 28.2,34.79 36.66,56.59 8.46,21.81 12.59,46.82 12.59,75.21 0,23.69 -3,45.5 -9.02,65.06 -6.21,19.74 -15.04,37.22 -26.88,52.64 -11.66,15.42 -26.14,28.77 -43.44,40.05 -17.29,11.47 -37.03,20.5 -59.04,27.64 10.72,5.07 20.69,11.28 30.09,18.61 9.4,7.33 18.24,16.36 26.52,26.88 8.27,10.53 16.17,22.37 23.5,35.92 7.33,13.34 14.47,28.57 21.43,45.5l60.36 140.83c5.46,13.91 9.21,24.06 10.91,30.65 1.88,6.39 2.82,11.47 2.82,15.23zm-187.27 -484.15c0,-23.5 -5.26,-43.43 -15.98,-59.42 -10.72,-16.17 -28.2,-27.63 -52.46,-34.22 -7.33,-1.88 -15.6,-3.19 -25,-4.32 -9.4,-1.13 -22.37,-1.69 -38.92,-1.69l-65.06 0 0 201.93 73.89 0c20.69,0 38.54,-2.44 53.96,-7.52 15.61,-4.89 28.39,-11.85 38.73,-20.88 10.35,-8.83 18.05,-19.74 23.13,-32.14 5.08,-12.41 7.7,-26.33 7.7,-41.74z"/>
   <g>
    <path class="fil2" d="M1223.07 1370.48l-1.4 5.59c-12.28,3.03 -22.38,6.84 -30.47,11.42 -8,4.58 -18.88,12.83 -32.48,24.87 -36.45,31.78 -68.24,56.26 -95.21,73.28 7.78,9.55 14.38,20.28 19.82,32.1 5.52,11.89 14.99,39.16 28.52,81.83 12.13,38.16 24.56,63.88 37.15,77.25 12.59,13.36 25.41,20.05 38.55,20.05 12.59,0 21.14,-6.69 25.72,-20.05 2.72,-7.85 5.05,-12.75 7.07,-14.53 2.72,-2.41 5.75,-3.65 9.09,-3.65 3.64,0 6.76,1.25 9.32,3.74 2.57,2.48 3.89,5.51 3.89,9.01 0,9.01 -5.36,17.79 -16.17,26.26 -10.8,8.47 -24.4,12.75 -40.95,12.75 -14.3,0 -27.82,-3.65 -40.65,-10.88 -12.82,-7.31 -24.48,-18.65 -35.12,-34.27 -10.65,-15.54 -21.45,-39.71 -32.57,-72.35 -10.33,-30.85 -18.26,-51.98 -23.85,-63.41 -5.67,-11.42 -13.44,-23.47 -23.47,-36.21l-24.48 91.78c-4.97,18.58 -8,31.86 -9.25,39.88 10.26,4.43 19.42,6.68 27.59,6.68 1.94,0 4.74,-0.15 8.39,-0.46l-2.8 11.19c-3.03,0.15 -4.97,0.23 -5.67,0.23 -5.05,0 -12.13,-0.54 -21.37,-1.55 -9.64,-1.01 -17.64,-1.48 -23.78,-1.48 -12.59,0 -32.48,2.33 -59.68,6.99l1.32 -10.72c14.45,-2.88 24.64,-6.85 30.55,-11.97 5.9,-5.05 10.56,-13.05 14.06,-23.93 8,-24.56 18.49,-61.47 31.47,-110.67l27.82 -105.22c-30.07,1.79 -53.78,8.62 -71.26,20.36 -13.44,8.93 -20.21,18.88 -20.21,29.92 0,3.89 1.87,8.86 5.6,14.92 3.42,5.44 5.12,9.79 5.12,13.14 0,4.04 -1.47,7.61 -4.5,10.72 -3.03,3.11 -6.53,4.66 -10.57,4.66 -4.66,0 -8.86,-2.33 -12.51,-7.07 -3.65,-4.66 -5.51,-10.95 -5.51,-18.65 0,-21.14 10.49,-40.1 31.55,-57.04 21.06,-16.94 57.59,-25.41 109.73,-25.41l14.77 0c-8.32,21.84 -13.76,37.62 -16.4,47.33l-17.95 68.94c11.27,-4.28 24.33,-11.57 39.33,-21.83 14.92,-10.34 29.3,-21.22 43.13,-32.88 25.33,-21.29 39.79,-34.27 43.21,-38.86 1.09,-1.56 1.63,-2.88 1.63,-3.89 0,-1.25 -1.55,-2.33 -4.66,-3.34 -3.03,-1.01 -11.82,-1.63 -26.12,-1.95l2.8 -12.59c19.43,1.86 35.28,2.8 47.72,2.8 12.75,0 27.44,-0.94 44.14,-2.8zm149.29 73.59l15.24 -3.1 -17.02 57.59c-6.76,22.92 -13.21,49.35 -19.27,79.27 -3.35,16.25 -4.97,26.74 -4.97,31.4 0,4.66 1.86,7 5.67,7 2.34,0 6.23,-1.56 11.43,-4.66 9.32,-5.52 18.26,-12.36 26.81,-20.52l7.3 8.86c-17.25,15.62 -28.28,25.1 -33.18,28.36 -9.72,6.6 -18.88,11.5 -27.67,14.61 -5.83,2.1 -11.42,3.19 -16.86,3.19 -3.89,0 -6.84,-0.94 -8.86,-2.72 -1.94,-1.79 -2.95,-4.51 -2.95,-7.93 0,-2.25 0.62,-5.36 1.87,-9.32l9.08 -30.62c-13.05,15.62 -28.67,28.99 -46.71,40.17 -11.03,6.92 -21.21,10.42 -30.46,10.42 -8.86,0 -15.54,-3.11 -20.29,-9.33 -6.37,-8.39 -9.55,-19.35 -9.55,-32.88 0,-16.09 4.27,-34.04 12.82,-53.78 8.62,-19.74 20.05,-37.69 34.51,-53.78 14.37,-16.09 29.53,-27.98 45.46,-35.59 12.28,-5.76 28.06,-8.62 47.33,-8.62 4.9,0 9.79,0.31 14.77,0.93l5.51 -8.94zm-28.21 35.21c-8.16,-1.63 -15.08,-2.49 -20.67,-2.49 -13.6,0 -25.49,3.73 -35.67,11.27 -10.18,7.54 -19.59,21.06 -28.28,40.57 -8.71,19.51 -13.06,39.01 -13.06,58.43 0,10.34 1.71,17.72 5.21,22.31 3.49,4.58 8.07,6.84 13.68,6.84 10.41,0 21.6,-5.67 33.57,-16.94 11.97,-11.35 20.75,-27.67 26.34,-48.88l18.88 -71.11zm64.28 20.82l-9.95 -7.92c31.78,-29.54 55.8,-44.31 72.04,-44.31 8.32,0 12.51,5.44 12.51,16.4 0,7.93 -2.64,22.3 -8,43.29l-8.32 33.97c-0.86,3.49 -1.32,6.05 -1.32,7.77 0,5.75 3.88,8.62 11.66,8.62 7.61,0 17.95,-4.82 30.93,-14.53 12.9,-9.64 22.08,-20.05 27.36,-31.16 5.36,-11.19 11.19,-30.7 17.48,-58.75l32.79 0 -21.37 79.58c-12.59,46.24 -18.88,72.51 -18.88,78.96 0,5.9 2.17,8.86 6.6,8.86 5.44,0 18.03,-9.8 37.61,-29.38l7.54 8.4c-30.7,31.7 -53.47,47.56 -68.23,47.56 -4.28,0 -8.32,-1.95 -12.05,-5.76 -3.73,-3.81 -5.59,-9.01 -5.59,-15.77 0,-7.93 1.55,-18.27 4.75,-30.94l12.97 -51.68c-33.42,27.74 -59.29,41.65 -77.56,41.65 -14.15,0 -21.21,-6.6 -21.21,-19.74 0,-6.22 4.2,-25.03 12.5,-56.42 3.65,-14.06 5.44,-22.92 5.44,-26.58 0,-4.28 -1.62,-6.37 -4.97,-6.37 -6.3,0 -17.87,8.07 -34.73,24.24zm324.93 82.07l7.46 9.79c-37.15,35.44 -68.94,53.16 -95.51,53.16 -10.73,0 -18.96,-3.65 -24.64,-10.88 -5.67,-7.3 -8.55,-18.96 -8.55,-34.97 0,-32.41 9.87,-64.59 29.61,-96.68 22.16,-36.45 48.57,-54.72 79.43,-54.72 10.73,0 18.96,2.72 24.64,8.08 5.67,5.37 8.54,12.75 8.54,22.15 0,9.87 -3.42,19.51 -10.26,29.07 -6.84,9.56 -19.04,19.51 -36.6,29.76 -8.86,4.98 -27.67,13.99 -56.49,27.05 -1.33,8.16 -2.02,15.93 -2.02,23.39 0,10.73 1.71,18.26 5.12,22.46 3.42,4.28 8.39,6.38 14.92,6.38 6.22,0 12.98,-1.79 20.44,-5.29 10.02,-4.66 24.63,-14.3 43.91,-28.75zm-79.66 -32.64c24.4,-10.88 42.75,-22.62 55.02,-35.13 8.32,-8.78 12.51,-17.48 12.51,-26.11 0,-6.45 -1.71,-11.66 -5.13,-15.54 -3.42,-3.81 -7.85,-5.75 -13.29,-5.75 -5.59,0 -11.03,2.09 -16.32,6.37 -7.15,5.59 -13.14,14.06 -17.95,25.33 -6.99,16.64 -11.96,33.57 -14.84,50.83zm244.17 41.03l5.13 13.05c-36.37,28.29 -67.07,42.44 -92.09,42.44 -13.29,0 -22.92,-4.75 -28.99,-14.15 -5.98,-9.41 -9.01,-21.37 -9.01,-35.83 0,-24.02 6.37,-48.73 19.2,-74.07 12.74,-25.41 28.28,-44.84 46.47,-58.43 14.3,-10.49 30.47,-15.71 48.42,-15.71 11.19,0 19.74,2.1 25.49,6.38 5.83,4.28 8.71,9.4 8.71,15.46 0,4.75 -1.56,8.55 -4.58,11.5 -3.03,2.95 -7.31,4.43 -12.75,4.43 -5.29,0 -12.13,-2.41 -20.52,-7.23 -8.63,-5.13 -15.86,-7.7 -21.69,-7.7 -7.38,0 -14.84,3.34 -22.22,10.1 -7.31,6.76 -14.38,19.89 -21.07,39.33 -6.69,19.42 -10.02,39.01 -10.02,58.6 0,14.37 2.8,25.57 8.47,33.49 4.11,6.06 9.87,9.09 17.33,9.09 17.8,0 39.09,-10.26 63.72,-30.77zm39.17 -89.52l-6.77 -9.33c15,-15 29.3,-26.04 42.83,-33.18 13.52,-7.07 24.24,-10.65 32.02,-10.65 3.18,0 5.59,0.7 7.23,2.1 1.55,1.4 2.41,3.34 2.41,5.83 0,2.88 -1.25,8.55 -3.65,16.86 -3.57,12.75 -5.98,22.77 -7.38,30.23 36.52,-36.68 64.5,-55.02 83.78,-55.02 5.05,0 8.86,1.41 11.42,4.28 2.56,2.88 3.89,7.39 3.89,13.6 0,6.29 -2.26,17.1 -6.84,32.25 17.25,-18.19 32.25,-31.17 44.92,-38.7 12.74,-7.61 22.61,-11.43 29.76,-11.43 6.37,0 11.27,1.8 14.77,5.44 3.49,3.65 5.21,9.26 5.21,16.79 0,4.58 -0.78,9.95 -2.26,16.17 -1.55,6.22 -7.07,25.1 -16.63,56.73 -11.97,39.17 -17.95,62.57 -17.95,70.18 0,5.12 2.09,7.7 6.37,7.7 2.88,0 5.67,-0.94 8.39,-2.72 9.02,-6.45 18.19,-14.38 27.59,-23.85l7.54 8.39c-3.18,2.56 -9.25,7.93 -18.03,16 -12.12,10.96 -20.43,17.8 -25.02,20.52 -8.79,5.21 -16.25,7.77 -22.23,7.77 -4.58,0 -8.55,-2.26 -12.04,-6.69 -3.5,-4.43 -5.21,-10.56 -5.21,-18.41 0,-7.24 1.08,-15.78 3.18,-25.5 2.09,-9.72 8.24,-31.55 18.41,-65.52 7.7,-25.49 11.5,-40.95 11.5,-46.39 0,-5.13 -2.25,-7.7 -6.84,-7.7 -3.73,0 -8.78,1.87 -15.15,5.67 -12.98,7.85 -23.94,17.4 -32.64,28.67 -6.06,7.85 -11.35,20.29 -15.93,37.31 -10.1,37.22 -17.65,67.62 -22.7,91.08l-32.56 0 33.96 -139.11c2.41,-10.03 3.65,-15.78 3.65,-17.33 0,-2.02 -0.62,-3.58 -1.86,-4.66 -1.17,-1.09 -2.96,-1.63 -5.21,-1.63 -4.11,0 -10.49,3.18 -19.19,9.48 -15,10.73 -25.88,21.06 -32.49,31.09 -6.6,10.02 -12.28,25.25 -16.94,45.77l-17.57 76.4 -32.56 0 25.72 -108.65c7.61,-31.4 11.42,-48.49 11.42,-51.21 0,-3.19 -1.4,-4.75 -4.11,-4.75 -5.91,0 -17.95,8.71 -36.21,26.12zm386.39 30.77l11.35 -0.23c20.2,0 30.3,10.02 30.3,30 0,20.44 -11.81,39.63 -35.44,57.59 -23.7,17.95 -46.79,26.89 -69.4,26.89 -28.06,0 -42.05,-14.92 -42.05,-44.85 0,-35.44 10.88,-69.86 32.64,-103.28 21.76,-33.34 47.26,-50.05 76.4,-50.05 22.15,0 33.18,10.1 33.18,30.31 0,19.82 -12.35,37.69 -36.99,53.63zm-63.11 18.11c45,-19.35 67.46,-40.42 67.46,-63.26 0,-14.38 -5.98,-21.53 -17.87,-21.53 -23.39,0 -39.94,28.28 -49.58,84.79zm-1.86 16.39c-1.33,8.4 -2.02,16.72 -2.02,24.87 0,13.6 1.55,23.08 4.58,28.52 3.03,5.44 8.32,8.16 15.78,8.16 10.72,0 21.76,-5.83 33.03,-17.57 11.34,-11.74 17.02,-25.26 17.02,-40.72 0,-15.85 -5.98,-23.78 -17.87,-23.78 -9.56,0 -26.34,6.84 -50.51,20.52zm245.42 -118.44c14.92,0 27.27,5.91 37.14,17.8 9.87,11.81 14.85,28.29 14.85,49.43 0,33.65 -11.89,63.96 -35.6,90.77 -23.7,26.81 -48.73,40.18 -75.22,40.18 -16.24,0 -29.37,-5.29 -39.33,-15.93 -9.94,-10.65 -14.92,-25.18 -14.92,-43.52 0,-31.86 9.09,-61.32 27.35,-88.37 22.93,-33.57 51.53,-50.36 85.73,-50.36zm-19.43 17.26c-12.9,0 -25.33,9.25 -37.38,27.66 -12.04,18.42 -18.03,43.91 -18.03,76.32 0,19.74 3.74,35.28 11.11,46.71 5.44,8.31 12.75,12.51 21.84,12.51 12.67,0 24.24,-7.93 34.73,-23.71 13.29,-20.43 19.97,-45.85 19.97,-76.23 0,-22.77 -3.03,-39.02 -9.17,-48.73 -6.14,-9.72 -13.84,-14.53 -23.09,-14.53zm201.75 36.84l-7.93 -7.93c19.59,-18.58 35.2,-30.93 46.87,-36.99 11.57,-6.14 21.53,-9.18 29.76,-9.18 3.27,0 5.75,0.7 7.61,2.02 1.79,1.33 2.72,2.88 2.72,4.75 0,1.32 -0.39,3.73 -1.08,7.15l-10.34 45.78c15.39,-17.18 34.74,-33.18 58.06,-48.1 12.36,-7.7 22.54,-11.58 30.54,-11.58 5.91,0 10.57,1.87 13.84,5.6 3.34,3.73 5.05,9.17 5.05,16.16 0,4.75 -0.7,10.03 -2.1,15.93 -2.41,9.87 -8.71,31.4 -18.96,64.51 -9.64,30.94 -14.45,51.52 -14.45,61.71 0,3.18 0.47,5.59 1.32,7.15 0.94,1.63 2.26,2.41 3.89,2.41 4.43,0 11.35,-4.27 20.75,-12.82 6.69,-6.14 13.37,-11.81 20.05,-17.02l5.13 8.4c-13.91,15.38 -28.29,27.74 -43.21,37.14 -9.56,5.99 -17.33,9.02 -23.56,9.02 -5.75,0 -10.18,-2.1 -13.36,-6.3 -3.18,-4.2 -4.75,-11.03 -4.75,-20.52 0,-13.52 8.47,-47.09 25.34,-100.87 5.21,-19.13 7.77,-30.23 7.77,-33.43 0,-4.5 -2.8,-6.76 -8.39,-6.76 -6.06,0 -13.91,3.18 -23.47,9.56 -14.3,9.4 -26.19,20.43 -35.74,33.18 -6.06,8.24 -11.2,21.29 -15.24,39.16l-18.49 79.43 -33.89 0c6.38,-22.77 11.89,-44.53 16.64,-65.28l20.2 -86.49c0.78,-3.42 1.17,-5.84 1.17,-7.31 0,-3.97 -1.56,-5.98 -4.59,-5.98 -2.48,0 -5.98,1.55 -10.56,4.74 -9.48,6.22 -18.34,13.83 -26.58,22.77zm211.46 2.56l-8.86 -9.09c13.83,-16.55 27.51,-28.75 41.11,-36.68 13.68,-7.85 25.49,-11.81 35.44,-11.81 3.81,0 6.76,0.93 9.01,2.88 2.17,1.87 3.27,4.66 3.27,8.32 0,4.43 -0.47,8.93 -1.48,13.6 -1.01,4.66 -4.04,15.7 -9.25,33.11 23.24,-23.24 39.09,-37.62 47.56,-43.06 14.3,-9.25 27.35,-13.91 39.16,-13.91 7.7,0 14.23,3.65 19.59,10.96 5.29,7.23 7.93,18.26 7.93,32.95 0,36.68 -11.42,71.58 -34.35,104.69 -22.92,33.03 -48.26,49.58 -76.08,49.58 -10.88,0 -21.83,-2.96 -32.71,-8.79l-19.28 75.07c-1.16,4.51 -1.79,8.25 -1.79,11.11 0,5.67 2.1,9.72 6.38,12.13 6.52,3.81 20.28,6.92 41.27,9.33l-2.96 11.19c-24.4,-1.86 -43.59,-2.8 -57.59,-2.8 -14.45,0 -33.1,0.94 -56.03,2.8l2.96 -11.19c11.5,-1.25 19.89,-4.43 25.1,-9.56 5.29,-5.21 9.48,-14.37 12.67,-27.59l41.11 -172.68c7.78,-32.18 11.66,-50.05 11.66,-53.71 0,-3.96 -1.94,-5.91 -5.67,-5.91 -6.68,0 -19.35,9.72 -38.15,29.07zm45.7 107.71c12.04,11.97 24.32,17.95 36.99,17.95 18.19,0 34.2,-14.22 47.95,-42.58 13.76,-28.36 20.68,-56.03 20.68,-83 0,-8.71 -1.95,-15.24 -5.83,-19.74 -3.89,-4.43 -9.09,-6.69 -15.63,-6.69 -7.31,0 -15.54,3.57 -24.71,10.73 -14.15,11.03 -24.95,22.07 -32.41,32.95 -5.29,7.93 -10.34,21.53 -15.08,40.96l-11.97 49.42zm269.05 -164.37c14.92,0 27.27,5.91 37.14,17.8 9.87,11.81 14.85,28.29 14.85,49.43 0,33.65 -11.89,63.96 -35.6,90.77 -23.7,26.81 -48.73,40.18 -75.22,40.18 -16.24,0 -29.37,-5.29 -39.33,-15.93 -9.94,-10.65 -14.92,-25.18 -14.92,-43.52 0,-31.86 9.09,-61.32 27.35,-88.37 22.93,-33.57 51.53,-50.36 85.73,-50.36zm-19.43 17.26c-12.9,0 -25.33,9.25 -37.38,27.66 -12.04,18.42 -18.03,43.91 -18.03,76.32 0,19.74 3.74,35.28 11.11,46.71 5.44,8.31 12.75,12.51 21.84,12.51 12.67,0 24.24,-7.93 34.73,-23.71 13.29,-20.43 19.97,-45.85 19.97,-76.23 0,-22.77 -3.03,-39.02 -9.17,-48.73 -6.14,-9.72 -13.84,-14.53 -23.09,-14.53zm196.15 66.68l11.35 -0.23c20.2,0 30.3,10.02 30.3,30 0,20.44 -11.81,39.63 -35.44,57.59 -23.7,17.95 -46.79,26.89 -69.4,26.89 -28.06,0 -42.05,-14.92 -42.05,-44.85 0,-35.44 10.88,-69.86 32.64,-103.28 21.76,-33.34 47.26,-50.05 76.4,-50.05 22.15,0 33.18,10.1 33.18,30.31 0,19.82 -12.35,37.69 -36.99,53.63zm-63.11 18.11c45,-19.35 67.46,-40.42 67.46,-63.26 0,-14.38 -5.98,-21.53 -17.87,-21.53 -23.39,0 -39.94,28.28 -49.58,84.79zm-1.86 16.39c-1.33,8.4 -2.02,16.72 -2.02,24.87 0,13.6 1.55,23.08 4.58,28.52 3.03,5.44 8.32,8.16 15.78,8.16 10.72,0 21.76,-5.83 33.03,-17.57 11.34,-11.74 17.02,-25.26 17.02,-40.72 0,-15.85 -5.98,-23.78 -17.87,-23.78 -9.56,0 -26.34,6.84 -50.51,20.52zm251.72 15.86l7.46 9.79c-37.15,35.44 -68.94,53.16 -95.51,53.16 -10.73,0 -18.96,-3.65 -24.64,-10.88 -5.67,-7.3 -8.55,-18.96 -8.55,-34.97 0,-32.41 9.87,-64.59 29.61,-96.68 22.16,-36.45 48.57,-54.72 79.43,-54.72 10.73,0 18.96,2.72 24.64,8.08 5.67,5.37 8.54,12.75 8.54,22.15 0,9.87 -3.42,19.51 -10.26,29.07 -6.84,9.56 -19.04,19.51 -36.6,29.76 -8.86,4.98 -27.67,13.99 -56.49,27.05 -1.33,8.16 -2.02,15.93 -2.02,23.39 0,10.73 1.71,18.26 5.12,22.46 3.42,4.28 8.39,6.38 14.92,6.38 6.22,0 12.98,-1.79 20.44,-5.29 10.02,-4.66 24.63,-14.3 43.91,-28.75zm-79.66 -32.64c24.4,-10.88 42.75,-22.62 55.02,-35.13 8.32,-8.78 12.51,-17.48 12.51,-26.11 0,-6.45 -1.71,-11.66 -5.13,-15.54 -3.42,-3.81 -7.85,-5.75 -13.29,-5.75 -5.59,0 -11.03,2.09 -16.32,6.37 -7.15,5.59 -13.14,14.06 -17.95,25.33 -6.99,16.64 -11.96,33.57 -14.84,50.83zm122.25 -45l-8.86 -9.09c13.83,-16.55 27.51,-28.75 41.11,-36.68 13.68,-7.85 25.49,-11.81 35.44,-11.81 3.81,0 6.76,0.93 9.01,2.88 2.17,1.87 3.27,4.66 3.27,8.32 0,4.43 -0.47,8.93 -1.48,13.6 -1.01,4.66 -4.04,15.7 -9.25,33.11 23.24,-23.24 39.09,-37.62 47.56,-43.06 14.3,-9.25 27.35,-13.91 39.16,-13.91 7.7,0 14.23,3.65 19.59,10.96 5.29,7.23 7.93,18.26 7.93,32.95 0,36.68 -11.42,71.58 -34.35,104.69 -22.92,33.03 -48.26,49.58 -76.08,49.58 -10.88,0 -21.83,-2.96 -32.71,-8.79l-19.28 75.07c-1.16,4.51 -1.79,8.25 -1.79,11.11 0,5.67 2.1,9.72 6.38,12.13 6.52,3.81 20.28,6.92 41.27,9.33l-2.96 11.19c-24.4,-1.86 -43.59,-2.8 -57.59,-2.8 -14.45,0 -33.1,0.94 -56.03,2.8l2.96 -11.19c11.5,-1.25 19.89,-4.43 25.1,-9.56 5.29,-5.21 9.48,-14.37 12.67,-27.59l41.11 -172.68c7.78,-32.18 11.66,-50.05 11.66,-53.71 0,-3.96 -1.94,-5.91 -5.67,-5.91 -6.68,0 -19.35,9.72 -38.15,29.07zm45.7 107.71c12.04,11.97 24.32,17.95 36.99,17.95 18.19,0 34.2,-14.22 47.95,-42.58 13.76,-28.36 20.68,-56.03 20.68,-83 0,-8.71 -1.95,-15.24 -5.83,-19.74 -3.89,-4.43 -9.09,-6.69 -15.63,-6.69 -7.31,0 -15.54,3.57 -24.71,10.73 -14.15,11.03 -24.95,22.07 -32.41,32.95 -5.29,7.93 -10.34,21.53 -15.08,40.96l-11.97 49.42zm275.34 -30.07l7.46 9.79c-37.15,35.44 -68.94,53.16 -95.51,53.16 -10.73,0 -18.96,-3.65 -24.64,-10.88 -5.67,-7.3 -8.55,-18.96 -8.55,-34.97 0,-32.41 9.87,-64.59 29.61,-96.68 22.16,-36.45 48.57,-54.72 79.43,-54.72 10.73,0 18.96,2.72 24.64,8.08 5.67,5.37 8.54,12.75 8.54,22.15 0,9.87 -3.42,19.51 -10.26,29.07 -6.84,9.56 -19.04,19.51 -36.6,29.76 -8.86,4.98 -27.67,13.99 -56.49,27.05 -1.33,8.16 -2.02,15.93 -2.02,23.39 0,10.73 1.71,18.26 5.12,22.46 3.42,4.28 8.39,6.38 14.92,6.38 6.22,0 12.98,-1.79 20.44,-5.29 10.02,-4.66 24.63,-14.3 43.91,-28.75zm-79.66 -32.64c24.4,-10.88 42.75,-22.62 55.02,-35.13 8.32,-8.78 12.51,-17.48 12.51,-26.11 0,-6.45 -1.71,-11.66 -5.13,-15.54 -3.42,-3.81 -7.85,-5.75 -13.29,-5.75 -5.59,0 -11.03,2.09 -16.32,6.37 -7.15,5.59 -13.14,14.06 -17.95,25.33 -6.99,16.64 -11.96,33.57 -14.84,50.83zm316.46 49.97c-30.7,31.94 -53.47,47.95 -68.16,47.95 -4.35,0 -8.39,-1.87 -12.13,-5.67 -3.73,-3.81 -5.59,-9.01 -5.59,-15.7 0,-7.78 1.48,-17.88 4.51,-30.31l11.19 -44.84 -62.32 0 -21.45 88.59 -33.96 0c0.31,-1.79 1.86,-8 4.82,-18.49 2.09,-7.54 6.13,-23.24 12.04,-46.94l20.28 -81.37c1.01,-4.28 1.55,-7.61 1.55,-10.02 0,-4.59 -1.55,-6.84 -4.74,-6.84 -6.69,0 -18.42,8.07 -35.13,24.24l-10.02 -7.7c32.1,-29.68 56.34,-44.53 72.66,-44.53 8.4,0 12.59,5.52 12.59,16.64 0,10.8 -4.9,34.9 -14.69,72.43l62.02 0 22.23 -83.46 32.87 0 -21.44 79.58c-12.59,46.24 -18.88,72.51 -18.88,78.96 0,5.9 2.17,8.86 6.6,8.86 5.51,0 18.03,-9.95 37.61,-29.84l7.54 8.47zm214.49 0c-30.7,31.94 -53.47,47.95 -68.16,47.95 -4.35,0 -8.39,-1.87 -12.13,-5.67 -3.73,-3.81 -5.59,-9.01 -5.59,-15.7 0,-7.78 1.48,-17.88 4.51,-30.31l11.19 -44.84 -62.32 0 -21.45 88.59 -33.96 0c0.31,-1.79 1.86,-8 4.82,-18.49 2.09,-7.54 6.13,-23.24 12.04,-46.94l20.28 -81.37c1.01,-4.28 1.55,-7.61 1.55,-10.02 0,-4.59 -1.55,-6.84 -4.74,-6.84 -6.69,0 -18.42,8.07 -35.13,24.24l-10.02 -7.7c32.1,-29.68 56.34,-44.53 72.66,-44.53 8.4,0 12.59,5.52 12.59,16.64 0,10.8 -4.9,34.9 -14.69,72.43l62.02 0 22.23 -83.46 32.87 0 -21.44 79.58c-12.59,46.24 -18.88,72.51 -18.88,78.96 0,5.9 2.17,8.86 6.6,8.86 5.51,0 18.03,-9.95 37.61,-29.84l7.54 8.47zm129.86 -151.63c14.92,0 27.27,5.91 37.14,17.8 9.87,11.81 14.85,28.29 14.85,49.43 0,33.65 -11.89,63.96 -35.6,90.77 -23.7,26.81 -48.73,40.18 -75.22,40.18 -16.24,0 -29.37,-5.29 -39.33,-15.93 -9.94,-10.65 -14.92,-25.18 -14.92,-43.52 0,-31.86 9.09,-61.32 27.35,-88.37 22.93,-33.57 51.53,-50.36 85.73,-50.36zm-19.43 17.26c-12.9,0 -25.33,9.25 -37.38,27.66 -12.04,18.42 -18.03,43.91 -18.03,76.32 0,19.74 3.74,35.28 11.11,46.71 5.44,8.31 12.75,12.51 21.84,12.51 12.67,0 24.24,-7.93 34.73,-23.71 13.29,-20.43 19.97,-45.85 19.97,-76.23 0,-22.77 -3.03,-39.02 -9.17,-48.73 -6.14,-9.72 -13.84,-14.53 -23.09,-14.53zm212.17 117.04l7.46 9.79c-37.15,35.44 -68.94,53.16 -95.51,53.16 -10.73,0 -18.96,-3.65 -24.64,-10.88 -5.67,-7.3 -8.55,-18.96 -8.55,-34.97 0,-32.41 9.87,-64.59 29.61,-96.68 22.16,-36.45 48.57,-54.72 79.43,-54.72 10.73,0 18.96,2.72 24.64,8.08 5.67,5.37 8.54,12.75 8.54,22.15 0,9.87 -3.42,19.51 -10.26,29.07 -6.84,9.56 -19.04,19.51 -36.6,29.76 -8.86,4.98 -27.67,13.99 -56.49,27.05 -1.33,8.16 -2.02,15.93 -2.02,23.39 0,10.73 1.71,18.26 5.12,22.46 3.42,4.28 8.39,6.38 14.92,6.38 6.22,0 12.98,-1.79 20.44,-5.29 10.02,-4.66 24.63,-14.3 43.91,-28.75zm-79.66 -32.64c24.4,-10.88 42.75,-22.62 55.02,-35.13 8.32,-8.78 12.51,-17.48 12.51,-26.11 0,-6.45 -1.71,-11.66 -5.13,-15.54 -3.42,-3.81 -7.85,-5.75 -13.29,-5.75 -5.59,0 -11.03,2.09 -16.32,6.37 -7.15,5.59 -13.14,14.06 -17.95,25.33 -6.99,16.64 -11.96,33.57 -14.84,50.83zm324.53 -17.72l11.35 -0.23c20.2,0 30.3,10.02 30.3,30 0,20.44 -11.81,39.63 -35.44,57.59 -23.7,17.95 -46.79,26.89 -69.4,26.89 -28.06,0 -42.05,-14.92 -42.05,-44.85 0,-35.44 10.88,-69.86 32.64,-103.28 21.76,-33.34 47.26,-50.05 76.4,-50.05 22.15,0 33.18,10.1 33.18,30.31 0,19.82 -12.35,37.69 -36.99,53.63zm-63.11 18.11c45,-19.35 67.46,-40.42 67.46,-63.26 0,-14.38 -5.98,-21.53 -17.87,-21.53 -23.39,0 -39.94,28.28 -49.58,84.79zm-1.86 16.39c-1.33,8.4 -2.02,16.72 -2.02,24.87 0,13.6 1.55,23.08 4.58,28.52 3.03,5.44 8.32,8.16 15.78,8.16 10.72,0 21.76,-5.83 33.03,-17.57 11.34,-11.74 17.02,-25.26 17.02,-40.72 0,-15.85 -5.98,-23.78 -17.87,-23.78 -9.56,0 -26.34,6.84 -50.51,20.52z"/>
    <path class="fil2" d="M5029.13 1504.54l-8.86 -9.09c13.83,-16.55 27.51,-28.75 41.11,-36.68 13.68,-7.85 25.49,-11.81 35.44,-11.81 3.81,0 6.76,0.93 9.01,2.88 2.17,1.87 3.27,4.66 3.27,8.32 0,4.43 -0.47,8.93 -1.48,13.6 -1.01,4.66 -4.04,15.7 -9.25,33.11 23.24,-23.24 39.09,-37.62 47.56,-43.06 14.3,-9.25 27.35,-13.91 39.16,-13.91 7.7,0 14.23,3.65 19.59,10.96 5.29,7.23 7.93,18.26 7.93,32.95 0,36.68 -11.42,71.58 -34.35,104.69 -22.92,33.03 -48.26,49.58 -76.08,49.58 -10.88,0 -21.83,-2.96 -32.71,-8.79l-19.28 75.07c-1.16,4.51 -1.79,8.25 -1.79,11.11 0,5.67 2.1,9.72 6.38,12.13 6.52,3.81 20.28,6.92 41.27,9.33l-2.96 11.19c-24.4,-1.86 -43.59,-2.8 -57.59,-2.8 -14.45,0 -33.1,0.94 -56.03,2.8l2.96 -11.19c11.5,-1.25 19.89,-4.43 25.1,-9.56 5.29,-5.21 9.48,-14.37 12.67,-27.59l41.11 -172.68c7.78,-32.18 11.66,-50.05 11.66,-53.71 0,-3.96 -1.94,-5.91 -5.67,-5.91 -6.68,0 -19.35,9.72 -38.15,29.07zm45.7 107.71c12.04,11.97 24.32,17.95 36.99,17.95 18.19,0 34.2,-14.22 47.95,-42.58 13.76,-28.36 20.68,-56.03 20.68,-83 0,-8.71 -1.95,-15.24 -5.83,-19.74 -3.89,-4.43 -9.09,-6.69 -15.63,-6.69 -7.31,0 -15.54,3.57 -24.71,10.73 -14.15,11.03 -24.95,22.07 -32.41,32.95 -5.29,7.93 -10.34,21.53 -15.08,40.96l-11.97 49.42zm275.34 -30.07l7.46 9.79c-37.15,35.44 -68.94,53.16 -95.51,53.16 -10.73,0 -18.96,-3.65 -24.64,-10.88 -5.67,-7.3 -8.55,-18.96 -8.55,-34.97 0,-32.41 9.87,-64.59 29.61,-96.68 22.16,-36.45 48.57,-54.72 79.43,-54.72 10.73,0 18.96,2.72 24.64,8.08 5.67,5.37 8.54,12.75 8.54,22.15 0,9.87 -3.42,19.51 -10.26,29.07 -6.84,9.56 -19.04,19.51 -36.6,29.76 -8.86,4.98 -27.67,13.99 -56.49,27.05 -1.33,8.16 -2.02,15.93 -2.02,23.39 0,10.73 1.71,18.26 5.12,22.46 3.42,4.28 8.39,6.38 14.92,6.38 6.22,0 12.98,-1.79 20.44,-5.29 10.02,-4.66 24.63,-14.3 43.91,-28.75zm-79.66 -32.64c24.4,-10.88 42.75,-22.62 55.02,-35.13 8.32,-8.78 12.51,-17.48 12.51,-26.11 0,-6.45 -1.71,-11.66 -5.13,-15.54 -3.42,-3.81 -7.85,-5.75 -13.29,-5.75 -5.59,0 -11.03,2.09 -16.32,6.37 -7.15,5.59 -13.14,14.06 -17.95,25.33 -6.99,16.64 -11.96,33.57 -14.84,50.83zm161.41 -49.43l-10.02 -7.92c32.1,-29.54 56.5,-44.31 73.21,-44.31 7.92,0 12.43,4.75 13.52,14.3l15.54 141.91 94.74 -150.61 32.17 0 -21.68 79.58c-12.43,46.24 -18.65,72.51 -18.65,78.96 0,5.9 2.17,8.86 6.6,8.86 5.51,0 18.03,-9.8 37.61,-29.38l7.54 8.4c-30.39,31.7 -52.85,47.56 -67.38,47.56 -4.11,0 -8.08,-1.87 -11.81,-5.6 -3.81,-3.73 -5.76,-9.01 -5.76,-15.85 0,-10.26 5.29,-35.59 15.93,-76.16l13.76 -53.23 -92.56 148.51 -17.48 0 -14.69 -132.35c-21.29,61.56 -38.54,98.93 -51.83,112.3 -13.29,13.36 -28.06,20.05 -44.3,20.05 -8.08,0 -14.23,-2.17 -18.34,-6.52 -4.2,-4.28 -6.3,-9.25 -6.3,-14.92 0,-5.44 1.79,-10.26 5.44,-14.38 3.65,-4.11 8.24,-6.13 13.68,-6.13 3.5,0 8,1.16 13.44,3.49 6.06,2.34 10.41,3.5 12.98,3.5 6.69,0 13.44,-4.04 20.28,-12.04 6.76,-8.01 16.79,-28.14 30,-60.23 13.21,-32.1 19.82,-51.53 19.82,-58.21 0,-3.81 -1.87,-5.67 -5.67,-5.67 -9.09,0 -22.38,8.71 -39.8,26.11zm366.74 82.07l7.46 9.79c-37.15,35.44 -68.94,53.16 -95.51,53.16 -10.73,0 -18.96,-3.65 -24.64,-10.88 -5.67,-7.3 -8.55,-18.96 -8.55,-34.97 0,-32.41 9.87,-64.59 29.61,-96.68 22.16,-36.45 48.57,-54.72 79.43,-54.72 10.73,0 18.96,2.72 24.64,8.08 5.67,5.37 8.54,12.75 8.54,22.15 0,9.87 -3.42,19.51 -10.26,29.07 -6.84,9.56 -19.04,19.51 -36.6,29.76 -8.86,4.98 -27.67,13.99 -56.49,27.05 -1.33,8.16 -2.02,15.93 -2.02,23.39 0,10.73 1.71,18.26 5.12,22.46 3.42,4.28 8.39,6.38 14.92,6.38 6.22,0 12.98,-1.79 20.44,-5.29 10.02,-4.66 24.63,-14.3 43.91,-28.75zm-79.66 -32.64c24.4,-10.88 42.75,-22.62 55.02,-35.13 8.32,-8.78 12.51,-17.48 12.51,-26.11 0,-6.45 -1.71,-11.66 -5.13,-15.54 -3.42,-3.81 -7.85,-5.75 -13.29,-5.75 -5.59,0 -11.03,2.09 -16.32,6.37 -7.15,5.59 -13.14,14.06 -17.95,25.33 -6.99,16.64 -11.96,33.57 -14.84,50.83zm316.46 49.97c-30.7,31.94 -53.47,47.95 -68.16,47.95 -4.35,0 -8.39,-1.87 -12.13,-5.67 -3.73,-3.81 -5.59,-9.01 -5.59,-15.7 0,-7.78 1.48,-17.88 4.51,-30.31l11.19 -44.84 -62.32 0 -21.45 88.59 -33.96 0c0.31,-1.79 1.86,-8 4.82,-18.49 2.09,-7.54 6.13,-23.24 12.04,-46.94l20.28 -81.37c1.01,-4.28 1.55,-7.61 1.55,-10.02 0,-4.59 -1.55,-6.84 -4.74,-6.84 -6.69,0 -18.42,8.07 -35.13,24.24l-10.02 -7.7c32.1,-29.68 56.34,-44.53 72.66,-44.53 8.4,0 12.59,5.52 12.59,16.64 0,10.8 -4.9,34.9 -14.69,72.43l62.02 0 22.23 -83.46 32.87 0 -21.44 79.58c-12.59,46.24 -18.88,72.51 -18.88,78.96 0,5.9 2.17,8.86 6.6,8.86 5.51,0 18.03,-9.95 37.61,-29.84l7.54 8.47zm136.16 -17.33l7.46 9.79c-37.15,35.44 -68.94,53.16 -95.51,53.16 -10.73,0 -18.96,-3.65 -24.64,-10.88 -5.67,-7.3 -8.55,-18.96 -8.55,-34.97 0,-32.41 9.87,-64.59 29.61,-96.68 22.16,-36.45 48.57,-54.72 79.43,-54.72 10.73,0 18.96,2.72 24.64,8.08 5.67,5.37 8.54,12.75 8.54,22.15 0,9.87 -3.42,19.51 -10.26,29.07 -6.84,9.56 -19.04,19.51 -36.6,29.76 -8.86,4.98 -27.67,13.99 -56.49,27.05 -1.33,8.16 -2.02,15.93 -2.02,23.39 0,10.73 1.71,18.26 5.12,22.46 3.42,4.28 8.39,6.38 14.92,6.38 6.22,0 12.98,-1.79 20.44,-5.29 10.02,-4.66 24.63,-14.3 43.91,-28.75zm-79.66 -32.64c24.4,-10.88 42.75,-22.62 55.02,-35.13 8.32,-8.78 12.51,-17.48 12.51,-26.11 0,-6.45 -1.71,-11.66 -5.13,-15.54 -3.42,-3.81 -7.85,-5.75 -13.29,-5.75 -5.59,0 -11.03,2.09 -16.32,6.37 -7.15,5.59 -13.14,14.06 -17.95,25.33 -6.99,16.64 -11.96,33.57 -14.84,50.83zm161.41 -49.43l-10.02 -7.92c32.1,-29.54 56.5,-44.31 73.21,-44.31 7.92,0 12.43,4.75 13.52,14.3l15.54 141.91 94.74 -150.61 32.17 0 -21.68 79.58c-12.43,46.24 -18.65,72.51 -18.65,78.96 0,5.9 2.17,8.86 6.6,8.86 5.51,0 18.03,-9.8 37.61,-29.38l7.54 8.4c-30.39,31.7 -52.85,47.56 -67.38,47.56 -4.11,0 -8.08,-1.87 -11.81,-5.6 -3.81,-3.73 -5.76,-9.01 -5.76,-15.85 0,-10.26 5.29,-35.59 15.93,-76.16l13.76 -53.23 -92.56 148.51 -17.48 0 -14.69 -132.35c-21.29,61.56 -38.54,98.93 -51.83,112.3 -13.29,13.36 -28.06,20.05 -44.3,20.05 -8.08,0 -14.23,-2.17 -18.34,-6.52 -4.2,-4.28 -6.3,-9.25 -6.3,-14.92 0,-5.44 1.79,-10.26 5.44,-14.38 3.65,-4.11 8.24,-6.13 13.68,-6.13 3.5,0 8,1.16 13.44,3.49 6.06,2.34 10.41,3.5 12.98,3.5 6.69,0 13.44,-4.04 20.28,-12.04 6.76,-8.01 16.79,-28.14 30,-60.23 13.21,-32.1 19.82,-51.53 19.82,-58.21 0,-3.81 -1.87,-5.67 -5.67,-5.67 -9.09,0 -22.38,8.71 -39.8,26.11z"/>
   </g>
  </g>
 </g>
</svg>
